HIERARCHY
ROOT Hips
{
	OFFSET 0.00000 0.00000 0.00000
	CHANNELS 6 Xposition Yposition Zposition Zrotation Yrotation Xrotation 
	JOINT LHipJoint
	{
		OFFSET 0 0 0
		CHANNELS 3 Zrotation Yrotation Xrotation
		JOINT LeftHip
		{
			OFFSET 1.44361 -1.63093 0.70831
			CHANNELS 3 Zrotation Yrotation Xrotation
			JOINT LeftKnee
			{
				OFFSET 2.20103 -6.04728 0.00000
				CHANNELS 3 Zrotation Yrotation Xrotation
				JOINT LeftAnkle
				{
					OFFSET 2.54154 -6.98283 0.00000
					CHANNELS 3 Zrotation Yrotation Xrotation
					JOINT LeftToe
					{
						OFFSET 0.05971 -0.16406 1.77582
						CHANNELS 3 Zrotation Yrotation Xrotation
						End Site
						{
							OFFSET 0.00000 -0.00000 0.90832
						}
					}
				}
			}
		}
	}
	JOINT RHipJoint
	{
		OFFSET 0 0 0
		CHANNELS 3 Zrotation Yrotation Xrotation
		JOINT RightHip
		{
			OFFSET -1.65838 -1.63093 0.70830
			CHANNELS 3 Zrotation Yrotation Xrotation
			JOINT RightKnee
			{
				OFFSET -2.26926 -6.23475 0.00000
				CHANNELS 3 Zrotation Yrotation Xrotation
				JOINT RightAnkle
				{
					OFFSET -2.34808 -6.45129 0.00000
					CHANNELS 3 Zrotation Yrotation Xrotation
					JOINT RightToe
					{
						OFFSET -0.18633 -0.51195 1.68539
						CHANNELS 3 Zrotation Yrotation Xrotation
						End Site
						{
							OFFSET -0.00000 -0.00000 0.88927
						}
					}
				}
			}
		}
	}
	JOINT lowerback
	{
		OFFSET 0 0 0
		CHANNELS 3 Zrotation Yrotation Xrotation
		JOINT Chest
		{
			OFFSET -0.10393 2.01691 0.06920
			CHANNELS 3 Zrotation Yrotation Xrotation
			JOINT Chest2
			{
				OFFSET 0.04092 2.01302 -0.05283
				CHANNELS 3 Zrotation Yrotation Xrotation
				JOINT lowerneck
				{
					OFFSET 0 0 0
					CHANNELS 3 Zrotation Yrotation Xrotation
					JOINT Neck
					{
						OFFSET -0.02870 1.58978 -0.03113
						CHANNELS 3 Zrotation Yrotation Xrotation
						JOINT Head
						{
							OFFSET 0.11532 1.54326 -0.29195
							CHANNELS 3 Zrotation Yrotation Xrotation
							End Site
							{
								OFFSET 0.04056 1.59999 -0.09535
							}
						}
					}
				}
				JOINT LeftCollar
				{
					OFFSET 0 0 0
					CHANNELS 3 Zrotation Yrotation Xrotation
					JOINT LeftShoulder
					{
						OFFSET 3.30641 1.15764 0.01104
CHANNELS 3 Zrotation Xrotation Yrotation
						JOINT LeftElbow
						{
OFFSET 0 -4.632080 0.000000
CHANNELS 3 Zrotation Xrotation Yrotation
							JOINT LeftWrist
							{
OFFSET 0 -3.419240 -0.000000
CHANNELS 3 Zrotation Xrotation Yrotation
								JOINT lhand
								{
									OFFSET 0 0 0
CHANNELS 3 Zrotation Xrotation Yrotation
									JOINT LFingers
									{
OFFSET 0 -0.625370 -0.000000
CHANNELS 3 Zrotation Xrotation Yrotation
										End Site
										{
OFFSET 0 -0.504190 -0.000000
										}
									}
								}
								JOINT LThumb
								{
OFFSET 0 0.000000 0.000000
CHANNELS 3 Zrotation Xrotation Yrotation
									End Site
									{
OFFSET 0 -0.511890 0.511890
									}
								}
							}
						}
					}
				}
				JOINT RightCollar
				{
					OFFSET 0 0 0
					CHANNELS 3 Zrotation Yrotation Xrotation
					JOINT RightShoulder
					{
						OFFSET -3.78081 1.02180 -0.16609
CHANNELS 3 Zrotation Xrotation Yrotation
						JOINT RightElbow
						{
OFFSET 0 -4.406400 -0.000000
CHANNELS 3 Zrotation Xrotation Yrotation
							JOINT RightWrist
							{
OFFSET 0 -3.446750 0.000000
CHANNELS 3 Zrotation Xrotation Yrotation
								JOINT rhand
								{
									OFFSET 0 0 0
CHANNELS 3 Zrotation Xrotation Yrotation
									JOINT RFingers
									{
OFFSET 0 -0.513670 -0.000000
CHANNELS 3 Zrotation Xrotation Yrotation
										End Site
										{
OFFSET 0 -0.414140 -0.000000
										}
									}
								}
								JOINT RThumb
								{
OFFSET 0 0.000000 0.000000
CHANNELS 3 Zrotation Xrotation Yrotation
									End Site
									{
OFFSET 0 -0.420460 0.420460
									}
								}
							}
						}
					}
				}
			}
		}
	}
}
MOTION
Frames: 12
Frame Time: 0.008333333333333333
8.153100 12.240500 8.996800 164.510000 -57.942200 -156.509000 0.000000 0.000000 0.000000 -13.130900 -21.956100 -50.610000 19.205200 19.984800 87.675600 0.000000 0.000000 0.000000 0.000000 0.000000 0.000000 0.000000 0.000000 0.000000 -17.118800 2.117400 -62.484100 -22.220400 -19.881400 96.504400 -37.279700 -4.903600 149.871000 -3.790200 11.875900 -35.294400 -11.193000 4.137700 9.374200 1.912500 4.383400 4.356000 7.826800 1.999300 -1.635300 1.740000 10.435100 -3.064600 -14.332100 12.319000 -13.227500 -4.644100 6.350700 -2.361100 -0.000000 0.000000 0.000000 0.676300 -13.953100 -43.399800 136.428200 -50.049300 98.861800 79.157900 -33.454200 33.547000 0.000000 0.000000 0.000000 -7.125000 0.000000 0.000000 25.043300 -39.936900 36.764500 -0.000000 0.000000 0.000000 -3.399000 -8.934300 1.531600 -34.461800 -44.424000 -14.435300 -13.357400 -14.478900 34.814900 0.000000 0.000000 0.000000 7.125000 0.000000 -0.000000 24.707200 63.879700 -11.655700
8.148960 12.162767 9.008755 164.573139 -57.741399 -157.023942 0.000000 0.000000 0.000000 -13.275394 -21.755661 -50.598873 18.863786 19.966376 86.675837 0.000000 0.000000 0.000000 0.000000 0.000000 0.000000 0.000000 0.000000 0.000000 -17.274525 2.127802 -62.639928 -21.943884 -19.907432 95.692293 -37.242748 -4.689084 149.622327 -4.004819 12.161731 -36.313829 -10.911464 4.149241 9.976190 1.825141 4.336305 4.504738 7.552406 1.970111 -1.775033 1.797342 10.414088 -2.961094 -14.277035 12.257725 -13.516437 -4.655951 6.325186 -2.468798 0.000000 0.000000 0.000000 0.951677 -14.463177 -43.272954 136.663003 -49.926749 99.041538 79.248157 -33.689572 33.467093 0.000000 0.000000 0.000000 -7.125000 0.000000 0.000000 25.147427 -39.981252 36.929644 0.000000 0.000000 0.000000 -3.342124 -9.241764 1.690947 -34.452484 -44.417169 -14.428779 -13.402373 -14.484852 34.873019 0.000000 0.000000 0.000000 7.125000 0.000000 0.000000 24.719879 63.943460 -11.698707
8.144830 12.085630 9.020748 164.632631 -57.542483 -157.531766 0.000000 0.000000 0.000000 -13.421403 -21.554433 -50.592248 18.523543 19.947331 85.679366 0.000000 0.000000 0.000000 0.000000 0.000000 0.000000 0.000000 0.000000 0.000000 -17.430729 2.134916 -62.796738 -21.669188 -19.932874 94.885631 -37.206105 -4.485166 149.377272 -4.207971 12.432113 -37.278409 -10.629192 4.156701 10.577654 1.736625 4.284256 4.650906 7.277276 1.938658 -1.916080 1.844279 10.394451 -2.865515 -14.210804 12.199951 -13.799792 -4.662257 6.301021 -2.574851 0.000000 0.000000 0.000000 1.230455 -14.971294 -43.138268 136.897357 -49.804293 99.220887 79.341044 -33.930102 33.385609 0.000000 0.000000 0.000000 -7.125000 0.000000 0.000000 25.254260 -40.027585 37.099089 0.000000 0.000000 0.000000 -3.283673 -9.548369 1.856374 -34.445879 -44.412315 -14.424155 -13.467877 -14.492181 34.908679 0.000000 0.000000 0.000000 7.125000 0.000000 0.000000 24.686695 63.992631 -11.710634
8.140845 12.016695 9.033273 164.641947 -57.369525 -157.941649 0.000000 0.000000 0.000000 -13.588254 -21.342350 -50.647572 18.199414 19.919747 84.728199 0.000000 0.000000 0.000000 0.000000 0.000000 0.000000 0.000000 0.000000 0.000000 -17.593544 2.096774 -62.967057 -21.419532 -19.950212 94.153896 -37.173708 -4.427100 149.182009 -4.253307 12.489869 -37.488164 -10.336788 4.108002 11.171881 1.632188 4.164034 4.761709 6.992014 1.876037 -2.075221 1.748019 10.393726 -2.879023 -13.990906 12.190377 -14.006338 -4.592235 6.295432 -2.658277 0.000000 0.000000 0.000000 1.556033 -15.452441 -42.895702 137.125536 -49.683139 99.394880 79.470115 -34.241603 33.282414 0.000000 0.000000 0.000000 -7.125000 0.000000 0.000000 25.398340 -40.101178 37.327733 0.000000 0.000000 0.000000 -3.203559 -9.843154 2.105460 -34.476568 -44.434672 -14.445632 -13.815915 -14.518471 34.635268 0.000000 0.000000 0.000000 7.125000 0.000000 0.000000 24.022343 63.841047 -11.294851
8.136811 11.948356 9.045502 164.649509 -57.193797 -158.348938 0.000000 0.000000 0.000000 -13.760442 -21.142502 -50.693787 17.877698 19.891132 83.783756 0.000000 0.000000 0.000000 0.000000 0.000000 0.000000 0.000000 0.000000 0.000000 -17.756226 2.068526 -63.134998 -21.172014 -19.966686 93.428563 -37.141521 -4.370596 148.988421 -4.293930 12.541609 -37.676077 -10.047294 4.055992 11.760877 1.523754 4.040222 4.871692 6.705482 1.811453 -2.231816 1.646107 10.391592 -2.893484 -13.756234 12.180011 -14.216404 -4.517179 6.289128 -2.744171 0.000000 0.000000 0.000000 1.912041 -15.929212 -42.633910 137.369407 -49.553137 99.580688 79.579274 -34.538729 33.200352 0.000000 0.000000 0.000000 -7.125000 0.000000 0.000000 25.517494 -40.167387 37.516720 0.000000 0.000000 0.000000 -3.112725 -10.143618 2.355164 -34.511563 -44.460142 -14.470132 -14.132198 -14.578677 34.388060 0.000000 0.000000 0.000000 7.125000 0.000000 0.000000 23.420185 63.704314 -10.918663
8.132464 11.883821 9.055853 164.645886 -57.000397 -158.739673 0.000000 0.000000 0.000000 -13.966677 -21.020727 -50.681884 17.571372 19.855940 82.882221 0.000000 0.000000 0.000000 0.000000 0.000000 0.000000 0.000000 0.000000 0.000000 -17.918057 2.103407 -63.287773 -20.938143 -19.977658 92.744079 -37.110676 -4.324071 148.805526 -4.304488 12.554961 -37.724621 -9.776367 3.982866 12.316497 1.389817 3.893502 4.976440 6.410853 1.734341 -2.372170 1.508134 10.380466 -2.914030 -13.427292 12.164588 -14.448929 -4.409998 6.278259 -2.845814 0.000000 0.000000 0.000000 2.462227 -16.378065 -42.249438 137.713408 -49.366671 99.841885 79.561367 -34.744137 33.253140 0.000000 0.000000 0.000000 -7.125000 0.000000 0.000000 25.477592 -40.186484 37.452649 0.000000 0.000000 0.000000 -2.953481 -10.480323 2.608805 -34.574029 -44.505478 -14.513915 -14.245847 -14.855297 34.308050 0.000000 0.000000 0.000000 7.125000 0.000000 0.000000 23.214881 63.662342 -10.795129
8.127675 11.819579 9.065425 164.623858 -56.809110 -159.125254 0.000000 0.000000 0.000000 -14.190708 -20.907787 -50.643940 17.272104 19.820033 82.000910 0.000000 0.000000 0.000000 0.000000 0.000000 0.000000 0.000000 0.000000 0.000000 -18.083790 2.143463 -63.421858 -20.707700 -19.987546 92.069713 -37.082650 -4.149830 148.613218 -4.405076 12.673741 -38.170413 -9.519219 3.913956 12.864218 1.250191 3.751747 5.086962 6.118264 1.658743 -2.503699 1.409517 10.358401 -2.912920 -13.123267 12.130055 -14.704247 -4.318237 6.257684 -2.954503 0.000000 0.000000 0.000000 3.038317 -16.838688 -41.864492 138.054928 -49.180616 100.100915 79.538044 -34.917949 33.302993 0.000000 0.000000 0.000000 -7.125000 0.000000 0.000000 25.435388 -40.196946 37.385077 0.000000 0.000000 0.000000 -2.774181 -10.813714 2.859407 -34.642753 -44.555283 -14.562115 -14.384844 -15.169695 34.206248 0.000000 0.000000 0.000000 7.125000 0.000000 0.000000 22.960534 63.607160 -10.641167
8.121154 11.756492 9.071946 164.529668 -56.626112 -159.490629 0.000000 0.000000 0.000000 -14.484509 -20.829485 -50.503896 17.000505 19.781322 81.198895 0.000000 0.000000 0.000000 0.000000 0.000000 0.000000 0.000000 0.000000 0.000000 -18.264822 2.203807 -63.482668 -20.490700 -19.993187 91.435015 -37.065675 -3.474869 148.384004 -4.858638 13.205865 -40.173665 -9.316088 3.861582 13.380970 1.088256 3.629455 5.220122 5.833675 1.589084 -2.600633 1.465203 10.293451 -2.826907 -12.916928 12.020598 -15.048921 -4.286926 6.199048 -3.090820 0.000000 0.000000 0.000000 3.715969 -17.345452 -41.477691 138.386716 -48.996168 100.351451 79.493485 -34.967891 33.341342 0.000000 0.000000 0.000000 -7.125000 0.000000 0.000000 25.384152 -40.173554 37.303773 0.000000 0.000000 0.000000 -2.516244 -11.134116 3.098091 -34.736011 -44.622614 -14.627634 -14.623218 -15.632211 34.019006 0.000000 0.000000 0.000000 7.125000 0.000000 0.000000 22.513906 63.500187 -10.367912
8.113623 11.694555 9.078607 164.441508 -56.464920 -159.869047 0.000000 0.000000 0.000000 -14.776404 -20.750860 -50.339312 16.742073 19.743045 80.435079 0.000000 0.000000 0.000000 0.000000 0.000000 0.000000 0.000000 0.000000 0.000000 -18.442306 2.261319 -63.496681 -20.287709 -19.997679 90.841308 -37.049990 -2.822835 148.160863 -5.291404 13.699536 -42.056933 -9.092709 3.802028 13.896111 0.930822 3.501273 5.358204 5.544556 1.515989 -2.690232 1.509474 10.219652 -2.733853 -12.703381 11.897594 -15.413691 -4.252965 6.133652 -3.236561 0.000000 0.000000 0.000000 4.376037 -17.861865 -41.084102 138.706836 -48.817218 100.592886 79.455489 -34.984387 33.372077 0.000000 0.000000 0.000000 -7.125000 0.000000 0.000000 25.341485 -40.152125 37.236114 0.000000 0.000000 0.000000 -2.262234 -11.446862 3.345246 -34.835609 -44.694334 -14.697655 -14.897940 -16.068980 33.819128 0.000000 0.000000 0.000000 7.125000 0.000000 0.000000 22.016710 63.390647 -10.070929
8.103376 11.635712 9.085646 164.369571 -56.362397 -160.282553 0.000000 0.000000 0.000000 -15.063166 -20.671368 -50.108701 16.519070 19.705938 79.774039 0.000000 0.000000 0.000000 0.000000 0.000000 0.000000 0.000000 0.000000 0.000000 -18.610244 2.311208 -63.384792 -20.122411 -19.999076 90.357884 -37.037777 -2.232490 147.954058 -5.668217 14.089753 -43.617387 -8.814847 3.723157 14.406912 0.785500 3.357245 5.509530 5.243250 1.433650 -2.760098 1.523033 10.122046 -2.621860 -12.470441 11.738143 -15.832528 -4.211874 6.050071 -3.407656 0.000000 0.000000 0.000000 4.988791 -18.404236 -40.672252 138.995566 -48.653058 100.809834 79.435150 -34.910898 33.382324 0.000000 0.000000 0.000000 -7.125000 0.000000 0.000000 25.321871 -40.135978 37.205166 0.000000 0.000000 0.000000 -2.018788 -11.739007 3.615189 -34.952260 -44.777863 -14.779787 -15.270458 -16.436477 33.585257 0.000000 0.000000 0.000000 7.125000 0.000000 0.000000 21.383461 63.274203 -9.710108
8.093007 11.579341 9.093017 164.325681 -56.243800 -160.699740 0.000000 0.000000 0.000000 -15.323828 -20.582777 -49.880807 16.305567 19.669059 79.140503 0.000000 0.000000 0.000000 0.000000 0.000000 0.000000 0.000000 0.000000 0.000000 -18.745876 2.246457 -63.404879 -19.918933 -19.998843 89.762851 -37.020690 -1.781151 147.751548 -5.952616 14.381842 -44.790480 -8.478280 3.626651 15.107432 0.599300 3.183609 5.512751 4.863028 1.353660 -3.081368 1.500780 10.015237 -2.519262 -12.102701 11.597992 -16.124558 -4.119369 5.971030 -3.549408 0.000000 0.000000 0.000000 5.681602 -18.710084 -40.205063 139.332886 -48.459063 101.062595 79.418878 -34.854342 33.425666 0.000000 0.000000 0.000000 -7.125000 0.000000 0.000000 25.287953 -40.149911 37.150904 0.000000 0.000000 0.000000 -1.700966 -11.813843 3.905133 -35.107405 -44.888282 -14.889247 -15.504757 -16.701447 33.481803 0.000000 0.000000 0.000000 7.125000 0.000000 0.000000 21.026508 63.241111 -9.522650
8.082397 11.527795 9.101039 164.336549 -56.093820 -161.124114 0.000000 0.000000 0.000000 -15.533531 -20.476425 -49.658218 16.110614 19.632625 78.560663 0.000000 0.000000 0.000000 0.000000 0.000000 0.000000 0.000000 0.000000 0.000000 -18.818434 1.957883 -63.682637 -19.640916 -19.995427 88.949916 -36.994089 -1.601206 147.557423 -6.056588 14.482346 -45.207298 -8.027098 3.495716 16.178355 0.333290 2.952170 5.226816 4.328731 1.278256 -3.893475 1.408609 9.890461 -2.435009 -11.471781 11.495521 -16.169013 -3.926485 5.900853 -3.633868 0.000000 0.000000 0.000000 6.530712 -18.554153 -39.629829 139.765075 -48.206819 101.385274 79.410546 -34.830846 33.533623 0.000000 0.000000 0.000000 -7.125000 0.000000 0.000000 25.226108 -40.222572 37.051124 0.000000 0.000000 0.000000 -1.237933 -11.464407 4.234127 -35.337706 -45.051200 -15.052062 -15.469203 -16.766241 33.632973 0.000000 0.000000 0.000000 7.125000 0.000000 0.000000 21.208989 63.370752 -9.673665
